<?xml version="1.0" encoding="UTF-8"?>
<svg width="49px" height="47px" viewBox="0 0 49 47" version="1.1" xmlns="http://www.w3.org/2000/svg" xmlns:xlink="http://www.w3.org/1999/xlink">
    <!-- Generator: Sketch 55.2 (78181) - https://sketchapp.com -->
    <title>icons/consultora-top</title>
    <desc>Created with Sketch.</desc>
    <g id="Page-2" stroke="none" stroke-width="1" fill="none" fill-rule="evenodd">
        <g id="01-Mapa-consultora-Esika" transform="translate(-717.000000, -248.000000)" fill="#000000" fill-rule="nonzero">
            <g id="Cards/crosselling/rectangle_choose_option" transform="translate(693.000000, 224.000000)">
                <g id="icon/consultora/black" transform="translate(24.000000, 24.000000)">
                    <path d="M29.8423956,31.0628802 C29.8396193,26.9041236 29.8395097,22.7453671 29.8365222,18.5866106 C29.8365222,14.0017761 30.4195602,9.3982662 27.0174716,5.71919336 C21.270826,-0.490409293 10.6986109,2.2953523 8.6796868,10.4689947 C8.33234503,11.8696569 8.41607921,13.2360808 8.42538301,14.6678689 C8.44088933,17.0303192 8.4532944,19.3927695 8.46880073,21.7552198 C8.48896731,25.0456938 8.50913389,28.3388538 8.52930048,31.6322047 C9.71395963,31.4145414 10.9260174,31.481601 12.1096868,31.2423722 C13.2819653,31.0058159 13.0400665,30.0533655 13.0400665,29.0511139 L13.0400665,26.9351382 C11.6618863,25.560732 10.6403949,23.8124381 10.2055096,22.022902 C9.64728174,19.732041 9.75892731,17.1299218 9.60696528,14.7830344 C9.57905389,14.3659483 9.85196528,13.9893258 10.1838007,13.7745576 C14.0758893,11.23469 17.9679779,8.69793508 21.8600665,6.16118011 C22.5454463,5.71296819 23.311459,6.19541852 23.568864,6.85839865 C24.0929779,8.206147 24.7690539,9.51654435 25.5536741,10.7273391 C26.3227881,11.9163457 27.4919653,12.9528357 28.1618387,14.1916437 C28.8782311,15.5144914 26.8686109,16.6910477 26.1522184,15.3713126 C25.3986109,13.9768755 24.0836741,12.8096569 23.2494336,11.4370079 C22.4896235,10.1857496 21.853864,8.84733905 21.3235476,7.48091521 C21.8941805,7.71435892 22.4617121,7.94469004 23.032345,8.17813375 C19.1402564,10.7180013 15.2481678,13.2547563 11.3560792,15.7915112 L11.9329147,14.7830344 C12.0383577,16.4358159 12.1438007,18.0885973 12.2554463,19.7413788 C12.5035476,23.4017761 15.471459,27.7469417 19.6147501,27.3423059 C23.2339273,26.9874715 25.9289273,23.1403192 25.9940539,19.7071404 C26.0250665,18.0668092 25.9940539,16.4233655 25.9940539,14.7830344 C25.9940539,13.2796569 28.3200033,13.2827695 28.3200033,14.7830344 C28.3200033,17.0676702 28.5712058,19.5266106 28.1029147,21.7738953 C27.7164126,23.6358753 26.681486,25.4649581 25.2621552,26.8953774 L25.2621552,29.8666106 C25.2621552,30.4953523 25.2094336,30.4113126 25.7397501,30.7536967 C26.2642516,31.0912071 26.9024765,31.3186554 27.5344622,31.4030553 C28.2778735,31.2338291 29.0650459,31.1465438 29.8423956,31.0628802 L29.8423956,31.0628802 Z M32.1681627,30.8186216 C32.4901365,30.7914348 32.8066062,30.7448379 33.030826,30.6291934 C33.2262058,30.5295907 32.8571552,30.8159483 32.9936109,30.6789947 C33.123864,30.5451536 33.2013957,30.2432331 33.2820286,30.0782662 C33.9829147,28.62469 36.2406362,21.8143589 38.7712691,24.9611801 C39.7047501,26.1190609 38.0672817,27.7811801 37.1275982,26.610849 C37.5648767,26.290253 37.7261425,26.2373391 37.6113957,26.4458821 C37.5989906,26.4738953 37.5834843,26.5019086 37.5710792,26.5299218 C37.5772817,26.5610477 37.4470286,26.7882662 37.4470286,26.7851536 C37.3601931,27.0901867 37.1462058,27.4107828 37.0097501,27.6940278 L35.911902,29.9724384 C35.3877881,31.0587298 34.9970286,32.5060808 33.706902,32.870253 C32.3950665,33.2406503 30.8971552,33.2873391 29.5512058,33.4865443 C29.3791954,33.5129478 28.7872719,33.6824837 28.3303355,33.7538754 C28.3321061,33.7465662 28.3338637,33.7392487 28.3356084,33.7319231 C28.3790456,33.7199955 28.4206371,33.7056455 28.4603829,33.6890753 L31.501902,36.7236304 C32.2896235,37.5080013 32.8013324,38.1056172 32.6679779,39.3101867 C32.5191172,40.6423722 32.2182944,41.9745576 31.9981045,43.2974053 C31.9360792,43.66469 31.9515855,44.8007828 31.700383,45.07469 C31.6693703,45.1089285 31.7065855,45.2396569 31.6693703,45.261445 C31.501902,45.3641602 30.9963957,44.9439616 31.0553197,44.7416437 C31.0770286,44.6638291 31.3468387,44.6109152 31.408864,44.5517761 C32.3454463,43.66469 34.0728514,43.1168755 35.2110159,42.5068092 C36.2251298,41.9589947 37.0562691,41.389392 38.2409526,41.8936304 C39.3356995,42.3574053 40.3839273,43.0452861 41.4321552,43.6086636 C41.9376615,43.8794583 42.771902,44.1440278 43.1812691,44.5486636 C43.2091805,44.5797894 43.553421,44.7074053 43.5596235,44.754094 C43.5751298,44.9003854 42.8866488,45.2116437 42.9145602,45.2303192 C42.9021552,45.2209814 42.86494,44.9906503 42.877345,45.0093258 C42.6168387,44.6109152 42.6447501,43.6148887 42.5672184,43.1511139 C42.4431678,42.404094 42.3160159,41.6570742 42.1919653,40.9100543 C41.9996868,39.7801867 41.5655096,38.5258159 42.3160159,37.5204516 C42.970383,36.6427033 43.9162691,35.8956834 44.6915855,35.1237629 C45.2156995,34.600849 45.7212058,33.9658821 46.307345,33.511445 C46.3786741,33.4554185 46.5895602,33.1472728 46.6701931,33.1472728 C46.7415222,33.1472728 46.9772184,33.6266106 46.8469653,33.7542265 C46.7322184,33.8631669 45.5971552,33.5674715 45.4389906,33.5456834 C44.7163957,33.436743 43.9906995,33.3309152 43.2681045,33.2219748 C42.2881045,33.0756834 40.8274083,33.1254847 40.0272817,32.4313788 C39.2395602,31.7466106 38.8488007,30.3210477 38.4146235,29.4246238 C37.9246235,28.4068092 37.4315222,27.3889947 36.9415222,26.3711801 C36.2902564,25.0234318 38.2967754,23.8437629 38.9511425,25.200849 C39.6117121,26.5703854 40.275383,27.9430344 40.9359526,29.3125708 C41.1003197,29.6518424 41.2894969,29.9911139 41.4321552,30.3397232 C41.5251931,30.5638291 41.7484843,30.766147 41.4848767,30.6198556 C41.8601298,30.8252861 42.632345,30.7879351 43.0417121,30.8501867 C44.4900033,31.0649549 46.0778514,31.124094 47.4889273,31.5100543 C48.5092438,31.7901867 49.2132311,32.8515775 48.8844969,33.9129682 C48.7046235,34.4981338 48.220826,34.8996569 47.8052564,35.3136304 C46.7012058,36.4123722 45.6467754,37.6823059 44.440383,38.6689947 C44.381459,38.718796 43.8387374,39.3101867 44.1085476,38.8152861 C44.2729147,38.5133655 44.1116488,38.6565443 44.2077881,38.942902 C44.4217754,39.5716437 44.4465855,40.3622397 44.5551298,41.0189947 C44.7722184,42.3044914 45.1815855,43.6927033 45.2125982,44.9999881 C45.2529147,46.8613126 43.4572817,47.3095245 42.0741172,46.6029682 C40.6971552,45.8995245 39.3481045,45.1369417 37.9866488,44.4054847 C37.7757628,44.2934318 37.3539906,44.1627033 37.1989273,43.9821735 C36.9663324,43.7113788 37.5927881,43.8327695 37.4315222,43.9603854 C37.0035476,44.3027695 36.3894969,44.5206503 35.9088007,44.7789947 C34.6962058,45.4326371 33.4929147,46.201445 32.2306995,46.7585973 C30.5932311,47.4838291 29.2441805,46.3259483 29.4333577,44.6140278 C29.5977248,43.1231006 29.9326615,41.6352861 30.1807628,40.1568092 C30.2675982,39.6401205 30.4071552,39.1078689 30.4443703,38.5880675 C30.3947501,39.2977364 30.6583577,39.0113788 30.2738007,38.7903854 C30.0381045,38.6534318 29.7900033,38.3079351 29.600826,38.1180675 C28.8490249,37.3701225 28.0615945,36.6408344 27.3096991,35.8840524 C25.4550066,38.3009693 21.7815837,39.2593258 18.7681045,39.1389947 C15.4020985,39.0021526 11.0838772,37.4422201 10.2194815,33.8780317 C9.18374561,33.9670407 8.17445342,34.0741524 7.38645895,34.4576702 C3.1718387,36.5057496 3.07259819,42.0741602 2.26626908,46.1174053 C1.97164883,47.5927695 -0.270566362,46.9640278 0.027155157,45.4980013 C0.793167815,41.6415112 1.00405389,36.8854847 4.00297794,34.0156834 C4.65607627,33.3910694 5.4031023,32.8586074 6.20957947,32.4442492 C6.20863975,32.4246644 6.20810221,32.4048113 6.20797794,32.38469 C6.18006655,27.6317761 6.14905389,22.8757496 6.1211425,18.1228357 C6.09012984,13.2889947 5.71177541,8.80376289 8.98981338,4.75118011 C14.1968387,-1.68564108 24.3751931,-1.56113777 29.4395602,4.99707415 C32.7206995,9.24886223 32.1593703,14.1698556 32.1624716,19.1811139 C32.1653923,23.0621771 32.1655624,26.9404797 32.1681627,30.8186216 L32.1681627,30.8186216 Z M25.8311784,33.9776217 C25.7579094,33.7661289 25.7150227,33.5510763 25.704821,33.3398665 C24.3008022,32.8422211 23.0280354,31.9019404 22.9362058,30.4393258 C22.9003074,29.8573132 22.8963735,29.2703651 22.9030578,28.6826015 C21.8774033,29.2417031 20.7631285,29.598259 19.6147501,29.676743 C18.1618954,29.7760922 16.7446953,29.414712 15.4635726,28.7378943 C15.5035626,29.8551878 15.4631631,30.9944165 15.0372817,31.8711139 C14.533645,32.9062485 13.6082456,33.3611638 12.5320602,33.5950731 C13.2612416,35.879409 16.714884,36.7170479 18.7681045,36.8045576 C20.9338294,36.8947937 24.5674013,36.3016082 25.7679434,34.1219592 C25.7888348,34.0736856 25.8098935,34.0255796 25.8311784,33.9776217 L25.8311784,33.9776217 Z M25.8356841,33.9905142 C25.81745,34.0229288 25.7988852,34.0551645 25.7800665,34.0872728 C25.781889,34.088043 25.7837114,34.0888131 25.7855339,34.0895833 C25.8028901,34.0571954 25.8197125,34.0244612 25.8359887,33.9913778 C25.8358871,33.9910899 25.8357856,33.9908021 25.8356841,33.9905142 L25.8356841,33.9905142 Z" id="Shape"></path>
                </g>
            </g>
        </g>
    </g>
</svg>