<?xml version="1.0" encoding="UTF-8"?>
<svg width="84px" height="30px" viewBox="0 0 84 30" version="1.1" xmlns="http://www.w3.org/2000/svg" xmlns:xlink="http://www.w3.org/1999/xlink">
    <!-- Generator: Sketch 55.2 (78181) - https://sketchapp.com -->
    <title>Logotypes/brands/esika_color</title>
    <desc>Created with Sketch.</desc>
    <g id="Page-2" stroke="none" stroke-width="1" fill="none" fill-rule="evenodd">
        <g id="01-Home-Esika" transform="translate(-558.000000, -61.000000)" fill="#E81C36">
            <g id="Logotypes/brands/esika_color" transform="translate(558.000000, 61.000000)">
                <path d="M79.5505863,17.2383229 C80.5944645,18.3122297 81.1414412,19.8281237 81.089715,21.5067973 C81.0002948,24.2264653 79.1186178,27.1540304 75.1985719,27.1540304 C71.8476515,27.1540304 69.5070423,24.7663671 69.5070423,21.3481318 C69.5070423,18.0023039 71.8868588,15.5744599 75.1661055,15.5744599 C76.9758336,15.5744599 78.4914379,16.1494684 79.5505863,17.2383229 L79.5505863,17.2383229 Z M75.0986964,12.6069884 C70.0146741,12.6069884 66.4634523,16.1604392 66.4634523,21.2489829 C66.4634523,26.4764447 69.9209892,29.9891663 75.0658172,29.9891663 C77.6076908,29.9891663 79.7453849,28.6755469 80.9573731,27.0557044 L81.0920537,29.5462192 L81.092604,29.5537616 L84,29.5537616 L84,13.0444501 L81.0238192,13.0444501 L80.9965804,15.6253371 C79.7573534,13.9750505 77.5660072,12.6069884 75.0986964,12.6069884 L75.0986964,12.6069884 Z M41.1356502,8.24443916 C41.1356502,11.0255437 45.3202424,11.0255437 45.3202424,8.28311133 C45.3202424,5.50186961 41.1356502,5.50186961 41.1356502,8.24443916 L41.1356502,8.24443916 Z M41.5820635,29.5392253 L44.8736915,29.5392253 L44.8736915,13.0533639 L41.5820635,13.0533639 L41.5820635,29.5392253 Z M37.228811,18.4113786 C36.865077,14.6684068 33.9686865,12.6060285 29.0618539,12.6060285 C24.7746348,12.6060285 21.8947527,14.6518134 21.8947527,17.6966292 C21.8947527,20.3528035 23.6727023,21.8396248 27.4881952,22.3762354 L30.5983688,22.8610088 C32.8058107,23.2235946 34.002116,23.7027454 34.002116,25.1945036 C34.002116,26.6543092 32.4540452,27.5263528 29.8607206,27.5263528 C26.9860662,27.5263528 25.1493744,26.3978662 24.6147789,24.3371335 L21.3975762,24.3371335 C21.8855355,27.8804363 25.0120799,29.9866979 29.8607206,29.9866979 C34.4948903,29.9866979 37.4899181,27.9882246 37.4899181,24.8955486 C37.4899181,22.1440652 35.7034392,20.6996188 31.5165084,20.0672877 L28.0709401,19.5818287 C26.1823845,19.2850678 25.3404586,18.6113219 25.3404586,17.3989084 C25.3404586,15.9821633 26.8014478,15.0665106 29.0618539,15.0665106 C32.0640354,15.0665106 33.6905208,16.1338349 34.1652735,18.4113786 L37.228811,18.4113786 Z M57.6056207,19.8336091 L65.530868,29.5394995 L61.6240288,29.5394995 L61.5963773,29.5056271 L55.1462889,21.6721826 L52.9675991,23.5949571 L52.9675991,29.5394995 L49.6759712,29.5394995 L49.6759712,6.19234602 L52.9675991,6.19234602 L52.9675991,20.3231823 L61.0711366,13.0535011 L65.2430724,13.0535011 L65.0601048,13.2150465 L57.6056207,19.8336091 Z M3.31817884,19.7398086 L3.33248608,19.6765892 L3.3287717,19.6765892 C3.33248608,19.6638356 3.3364756,19.6506706 3.34018998,19.6366828 C3.69209302,18.1931963 4.48050442,17.0249403 5.62026859,16.2579424 C5.6989584,16.2043225 5.77778578,16.1513883 5.85881428,16.1022938 C5.87807403,16.0906373 5.89664592,16.0799408 5.91590567,16.0689699 L5.96212905,16.0427771 C6.09529643,15.9658442 6.22956436,15.8953566 6.36300688,15.8332343 L6.38804455,15.8215778 C6.54514903,15.7487589 6.70761874,15.6825226 6.87118899,15.6243772 L6.88040616,15.6213602 C7.04796594,15.562392 7.22047822,15.5098692 7.39450377,15.4657116 L7.4242188,15.4569349 C7.56962987,15.4211426 7.72178185,15.3891901 7.88865378,15.3605288 L7.93749099,15.3512036 C7.96005241,15.3472267 7.9817884,15.3425641 8.00476253,15.3392728 C8.11082869,15.3229537 8.21937111,15.3112972 8.32915165,15.3000521 C8.64074681,15.2645341 8.90433017,15.2484892 9.15952178,15.2484892 C12.2214085,15.2484892 14.3712086,16.8832795 14.9115821,19.6254377 L14.9258893,19.6741207 C14.9264396,19.6750807 14.9265771,19.6759035 14.9265771,19.6765892 L14.9195611,19.6765892 L14.9308418,19.7373401 C14.9919227,20.0801785 15.0282411,20.3949041 15.0426859,20.6975617 L3.16024894,20.6975617 C3.18996397,20.3910643 3.24169014,20.0767501 3.31817884,19.7398086 L3.31817884,19.7398086 Z M14.4514117,24.3693603 C13.63755,26.3365667 11.9407665,27.3335406 9.40811006,27.3335406 C5.91315427,27.3335406 3.53870292,25.3863559 3.21114969,22.253225 C3.21073698,22.2484252 3.16864068,21.7844964 3.15694726,21.4992549 L18.3069374,21.4992549 L18.3047363,21.445635 C18.2488831,19.9169874 18.0229938,18.7868551 17.5229283,17.5448204 C16.2578382,14.4606467 13.1374844,12.6190563 9.17630527,12.6190563 C3.77380937,12.6190563 0,16.227087 0,21.3927007 C0,26.5408983 3.66155257,30 9.11082214,30 C13.4704029,30 16.3842647,28.1714375 18.0183164,24.4096781 L18.0498198,24.3371335 L14.4643433,24.3371335 L14.4514117,24.3693603 Z M18.3366525,0 L4.46413364,11.2630621 L4.8231903,11.7028552 L18.6962594,0.439655882 L18.3366525,0 Z"></path>
            </g>
        </g>
    </g>
</svg>